<svg xmlns="http://www.w3.org/2000/svg" width="24" height="24" viewBox="0 0 24 24">
    <path fill="#D0021B" fill-rule="nonzero" d="M12 0C5.373 0 0 5.373 0 12s5.373 12 12 12 12-5.373 12-12S18.627 0 12 0zm0 22.4C6.266 22.4 1.6 17.734 1.6 12S6.266 1.6 12 1.6 22.4 6.266 22.4 12 17.734 22.4 12 22.4zm4.429-15.96l-4.399 4.398L8.086 6.44a.8.8 0 0 0-1.13 1.131L10.9 11.97l-4.46 4.459a.8.8 0 0 0 1.132 1.131l4.398-4.398 3.946 4.398a.8.8 0 0 0 1.131-1.131l-3.947-4.399 4.459-4.459a.8.8 0 0 0-1.131-1.131z"/>
</svg>
